<?xml version="1.0" standalone="no"?>
<!DOCTYPE svg PUBLIC "-//W3C//DTD SVG 20010904//EN"
 "http://www.w3.org/TR/2001/REC-SVG-20010904/DTD/svg10.dtd">
<svg version="1.0" xmlns="http://www.w3.org/2000/svg"
 width="500.000000pt" height="500.000000pt" viewBox="0 0 500.000000 500.000000"
 preserveAspectRatio="xMidYMid meet">

<g transform="translate(0.000000,500.000000) scale(0.100000,-0.100000)"
fill="#000000" stroke="none">
<path d="M2365 4644 c-123 -17 -233 -41 -310 -66 -641 -213 -1147 -829 -1251
-1521 -20 -136 -20 -368 1 -493 79 -468 376 -837 785 -977 135 -46 265 -67
418 -67 208 0 366 34 609 131 88 35 103 44 107 67 6 27 106 651 106 659 0 2
-30 -20 -67 -50 -141 -112 -280 -186 -428 -229 -117 -33 -319 -33 -425 0 -123
39 -187 78 -285 177 -76 75 -99 106 -138 185 -60 120 -86 224 -94 370 -11 213
35 416 141 636 66 135 146 243 257 350 139 132 288 219 444 260 100 26 316 26
405 0 148 -44 273 -123 361 -228 29 -35 51 -54 54 -46 11 35 105 663 100 675
-11 31 -223 116 -370 149 -67 15 -353 27 -420 18z"/>
<path d="M2758 3464 c-89 -16 -231 -60 -375 -115 -89 -35 -102 -43 -107 -67
-6 -28 -106 -651 -106 -659 0 -3 21 14 47 37 115 101 302 201 453 242 69 19
109 23 215 22 220 -1 342 -52 495 -204 70 -70 94 -102 133 -180 72 -144 90
-224 91 -410 0 -92 -5 -185 -13 -229 -30 -167 -114 -372 -211 -517 -73 -108
-235 -269 -340 -336 -170 -109 -284 -142 -485 -142 -133 0 -145 1 -238 33
-120 41 -239 121 -315 210 -30 36 -54 56 -57 49 -11 -34 -105 -663 -101 -674
11 -29 183 -102 331 -140 82 -21 131 -27 265 -31 261 -8 455 32 690 144 213
100 438 271 600 454 241 273 414 639 465 986 21 141 21 375 -1 501 -91 539
-471 940 -973 1026 -116 20 -354 20 -463 0z"/>
</g>
</svg>
